<?xml version="1.0" standalone="no"?>
<!DOCTYPE svg PUBLIC "-//W3C//DTD SVG 20010904//EN"
 "http://www.w3.org/TR/2001/REC-SVG-20010904/DTD/svg10.dtd">
<svg version="1.0" xmlns="http://www.w3.org/2000/svg"
 width="1080.000000pt" height="1080.000000pt" viewBox="0 0 1080.000000 1080.000000"
 preserveAspectRatio="xMidYMid meet">
<metadata>
Created by potrace 1.14, written by Peter Selinger 2001-2017
</metadata>
<g transform="translate(0.000000,1080.000000) scale(0.100000,-0.100000)"
fill="#000000" stroke="none">
<path d="M8995 10278 c-126 -20 -246 -40 -265 -43 -20 -3 -47 -8 -60 -10 -31
-7 -46 -9 -205 -35 -71 -11 -141 -23 -155 -26 -14 -2 -41 -7 -60 -10 -19 -3
-46 -7 -60 -10 -14 -2 -41 -7 -60 -10 -19 -2 -60 -10 -90 -16 -30 -6 -68 -12
-85 -14 -16 -1 -70 -10 -120 -19 -49 -10 -101 -19 -115 -20 -14 -2 -77 -12
-140 -24 -63 -11 -131 -23 -150 -26 -19 -3 -46 -7 -60 -10 -14 -3 -38 -7 -55
-9 -16 -3 -111 -19 -210 -36 -99 -17 -196 -33 -215 -36 -19 -3 -69 -11 -110
-19 -41 -8 -95 -17 -120 -20 -25 -4 -78 -13 -118 -20 -41 -8 -77 -14 -80 -14
-4 1 -9 0 -12 -1 -9 -3 -34 -8 -80 -15 -25 -3 -94 -15 -155 -25 -60 -11 -125
-22 -142 -25 -18 -3 -46 -7 -63 -10 -16 -3 -45 -7 -62 -10 -18 -3 -69 -12
-113 -20 -44 -7 -96 -16 -115 -19 -19 -3 -75 -12 -125 -21 -49 -9 -101 -18
-115 -20 -14 -2 -119 -20 -235 -40 -115 -20 -221 -38 -235 -40 -14 -2 -41 -7
-60 -10 -19 -3 -46 -8 -60 -10 -14 -2 -65 -11 -115 -20 -49 -9 -101 -18 -115
-20 -75 -11 -164 -26 -169 -29 -3 -2 -33 -7 -66 -11 -32 -3 -62 -8 -65 -10 -3
-2 -27 -6 -54 -9 -26 -3 -51 -8 -54 -10 -4 -2 -31 -7 -61 -10 -29 -4 -56 -8
-60 -10 -3 -2 -29 -6 -56 -9 -28 -3 -57 -8 -65 -11 -8 -3 -31 -7 -50 -10 -19
-3 -78 -12 -130 -21 -138 -23 -143 -24 -165 -29 -11 -2 -40 -7 -65 -11 -25 -4
-52 -9 -60 -10 -8 -1 -35 -6 -60 -10 -57 -9 -78 -13 -110 -20 -14 -3 -41 -7
-60 -10 -19 -2 -73 -11 -120 -19 -47 -9 -102 -17 -122 -20 -21 -2 -41 -6 -45
-9 -4 -3 -33 -8 -63 -12 -92 -12 -99 -13 -107 -18 -4 -3 -35 -8 -68 -12 -32
-3 -62 -8 -65 -10 -3 -1 -27 -6 -55 -9 -27 -4 -57 -9 -65 -11 -13 -4 -257 -47
-340 -60 -68 -11 -310 -55 -445 -80 -135 -26 -456 -96 -464 -102 -28 -20 173
-37 424 -36 174 1 828 16 1230 28 99 3 257 7 350 10 94 3 251 7 350 10 99 3
214 7 255 9 82 5 84 8 -25 -39 -197 -85 -429 -221 -595 -350 -172 -133 -335
-289 -446 -428 -32 -40 -63 -76 -69 -82 -30 -28 -232 -345 -226 -354 1 -2 -1
-7 -6 -10 -16 -10 -138 -272 -149 -318 -4 -15 -10 -32 -14 -38 -4 -5 -20 -50
-34 -100 -15 -49 -31 -100 -36 -112 -12 -29 -58 -248 -71 -337 -20 -138 -24
-203 -24 -391 0 -187 8 -302 29 -420 3 -16 8 -46 12 -65 3 -19 7 -39 8 -45 2
-5 6 -23 10 -40 24 -102 31 -126 48 -185 49 -161 95 -275 173 -431 59 -117 77
-152 86 -159 3 -3 12 -16 19 -30 12 -25 80 -130 90 -140 3 -3 25 -32 50 -65
25 -33 51 -66 58 -73 17 -19 16 -23 -18 -60 -17 -18 -30 -35 -30 -38 0 -2 -8
-12 -17 -22 -10 -10 -31 -36 -48 -57 -16 -21 -67 -84 -113 -139 -46 -56 -88
-108 -95 -116 -90 -113 -253 -316 -258 -320 -4 -4 -120 -147 -219 -270 -19
-24 -39 -48 -45 -54 -5 -6 -37 -45 -70 -86 -70 -88 -66 -82 -187 -230 -51 -63
-149 -185 -218 -270 -69 -85 -132 -164 -142 -175 -9 -11 -69 -85 -132 -165
-64 -80 -125 -155 -135 -167 -30 -36 -91 -120 -91 -126 0 -3 8 -6 17 -5 10 0
29 -3 43 -6 14 -3 72 -7 130 -10 58 -3 107 -6 110 -7 3 -1 9 -1 13 0 5 1 83 4
175 7 92 2 219 7 282 9 63 3 203 8 310 11 107 3 231 8 275 10 44 2 199 6 345
9 725 13 1016 18 1615 31 132 3 249 5 260 4 11 -1 27 -1 35 -1 77 3 416 10
680 15 179 3 327 6 330 7 9 1 951 20 990 20 14 0 34 0 45 -1 11 0 85 1 165 4
80 2 291 7 469 10 l325 6 25 -28 c14 -16 44 -50 65 -76 22 -27 49 -58 60 -70
12 -12 32 -35 46 -51 137 -162 277 -324 294 -341 12 -11 32 -36 46 -54 28 -37
61 -70 70 -70 3 0 13 9 23 20 10 12 23 18 29 14 7 -4 8 -3 4 4 -4 7 -3 12 3
12 5 0 16 6 23 13 7 7 51 42 98 77 92 70 139 110 207 180 94 96 95 100 34 187
-26 37 -63 90 -82 118 -19 27 -40 56 -47 63 -7 8 -11 16 -9 18 2 2 41 6 88 8
46 2 93 7 103 11 14 6 17 5 12 -3 -10 -17 0 -15 18 4 10 10 16 11 16 3 0 -9 4
-8 15 1 12 10 15 10 15 -1 0 -9 3 -10 8 -3 12 18 39 23 52 11 10 -9 11 -9 5 2
-6 11 -3 13 13 9 12 -4 22 -3 22 1 0 4 6 8 13 8 22 1 132 13 157 17 14 3 50 7
80 11 118 12 374 46 381 51 5 2 24 5 44 6 20 1 38 5 41 10 3 4 3 8 0 8 -3 0
-31 7 -63 15 -32 9 -76 18 -98 20 -72 8 -159 17 -200 20 -51 4 -168 15 -220
20 -22 3 -66 7 -98 10 -32 2 -77 7 -100 9 -23 3 -73 8 -112 11 -38 3 -90 8
-115 10 -80 8 -143 14 -220 20 -71 6 -77 9 -107 43 -18 21 -32 42 -33 49 0 6
-4 13 -8 15 -5 1 -99 122 -208 268 -110 146 -230 304 -267 353 -37 48 -97 126
-134 175 -37 48 -86 112 -110 142 -25 30 -50 62 -56 70 -29 37 -133 166 -142
176 -5 6 -27 31 -47 55 -21 24 -62 71 -92 103 l-54 60 109 109 c221 220 399
469 536 750 24 48 43 89 43 91 0 3 10 26 22 53 12 26 22 50 23 53 3 10 12 36
29 85 20 56 72 237 80 275 21 96 27 129 32 160 3 19 7 46 10 60 2 14 6 50 9
80 3 30 8 75 11 100 7 71 8 287 0 380 -22 278 -82 551 -168 765 -11 28 -24 59
-28 70 -23 59 -145 302 -175 349 -19 30 -35 59 -35 65 0 5 -4 11 -8 13 -15 6
-54 78 -42 78 6 0 9 4 6 9 -4 5 -3 11 2 13 4 1 33 37 65 78 63 83 60 79 102
135 16 22 33 42 37 43 4 2 8 10 8 17 0 7 4 15 8 17 5 2 28 30 53 63 24 33 47
62 52 63 4 2 7 8 7 13 0 5 8 18 18 28 9 11 33 41 52 68 19 26 37 50 40 53 3 3
52 68 110 145 57 77 107 142 112 143 4 2 8 10 8 17 0 7 4 15 8 17 5 2 26 28
48 58 21 30 41 57 44 60 3 3 19 23 36 45 16 22 33 44 37 50 5 5 46 62 93 125
47 63 91 120 98 125 7 6 13 12 13 15 0 4 108 154 173 240 21 28 91 122 118
159 9 14 35 48 57 77 22 29 64 87 94 129 30 42 61 83 68 91 8 8 11 14 7 14 -4
0 1 10 12 23 28 32 80 109 87 130 4 10 20 25 37 35 57 33 31 96 -37 90 -15 -1
-131 -19 -258 -40z m-2792 -1246 c9 -9 20 -12 24 -9 3 4 1 7 -5 7 -7 0 -12 5
-12 11 0 5 4 8 9 4 5 -3 32 -6 60 -6 28 -1 51 -5 51 -10 0 -5 -13 -21 -28 -37
-22 -23 -33 -27 -46 -20 -9 5 -60 25 -114 44 l-97 34 70 -2 c44 -1 76 -7 88
-16z m-903 -447 c104 -9 132 -13 240 -36 95 -21 293 -82 318 -98 13 -8 13 -8
-60 -96 -9 -11 -52 -63 -95 -115 -43 -53 -84 -102 -91 -110 -6 -8 -37 -46 -68
-85 -31 -38 -66 -81 -77 -95 -12 -14 -47 -56 -77 -95 -30 -38 -62 -77 -70 -86
-38 -42 -60 -71 -60 -79 0 -5 -4 -10 -9 -12 -5 -1 -40 -41 -78 -88 -37 -47
-74 -92 -80 -100 -7 -8 -40 -49 -74 -90 -33 -41 -68 -84 -77 -95 -10 -11 -46
-56 -81 -100 -35 -44 -68 -81 -72 -83 -5 -2 -9 -10 -9 -17 0 -7 -3 -15 -7 -17
-5 -1 -39 -41 -78 -88 -38 -47 -72 -87 -75 -90 -3 -3 -20 -25 -39 -50 -19 -25
-40 -52 -48 -60 -23 -26 -87 -106 -118 -146 -16 -21 -42 -52 -56 -69 -21 -25
-126 -153 -176 -215 -6 -8 -27 -33 -45 -56 -18 -22 -49 -60 -68 -84 -19 -24
-68 -84 -109 -134 -40 -50 -87 -108 -105 -130 -17 -21 -35 -43 -41 -50 -8 -9
-195 -239 -227 -281 -5 -5 -20 -23 -33 -40 -14 -16 -60 -74 -103 -127 -42 -54
-81 -97 -85 -98 -7 0 -85 153 -118 235 -32 76 -95 262 -105 307 -28 125 -56
299 -59 370 -2 49 -5 91 -7 95 -14 29 11 390 33 473 5 20 11 51 14 70 5 35 6
41 19 95 36 143 139 398 219 540 50 88 188 284 234 333 119 124 160 165 208
207 32 28 63 55 69 60 6 6 21 17 33 25 11 8 50 36 85 61 221 158 529 283 798
325 19 3 41 7 48 9 7 3 55 8 105 11 51 4 93 7 94 8 4 3 196 -3 263 -9z m1790
-1490 c21 -69 26 -85 35 -126 2 -11 7 -29 10 -39 11 -33 27 -134 40 -250 25
-218 13 -498 -31 -695 -8 -38 -17 -83 -20 -100 -7 -39 -80 -256 -106 -315 -41
-92 -102 -216 -118 -240 -9 -14 -37 -56 -61 -95 -38 -61 -82 -123 -114 -161
-5 -7 -21 -27 -35 -46 -33 -44 -225 -235 -274 -273 -21 -17 -48 -39 -60 -49
-34 -30 -205 -140 -286 -184 -152 -82 -388 -166 -525 -188 -22 -3 -43 -8 -46
-10 -7 -4 -32 -7 -155 -23 -103 -12 -484 -2 -502 14 -2 1 4 10 13 18 8 9 15
20 15 25 0 6 4 12 8 14 4 2 52 62 106 133 54 72 102 132 107 133 5 2 9 9 9 15
0 7 10 23 23 37 23 26 190 244 217 283 8 12 34 47 57 77 24 30 51 65 60 78 10
13 24 30 31 37 6 8 12 16 12 20 0 4 6 12 13 19 6 7 71 91 142 186 72 96 138
182 148 192 9 10 17 23 17 28 0 6 5 10 10 10 6 0 10 6 10 14 0 8 4 16 8 18 5
2 80 98 167 213 87 116 167 222 179 236 12 14 28 37 36 49 8 13 23 30 33 39 9
8 17 21 17 28 0 7 3 13 8 13 4 1 25 26 47 56 63 85 149 198 156 204 3 3 8 10
10 16 2 6 17 26 32 45 25 30 120 155 165 217 9 13 24 32 33 42 8 10 24 31 35
45 26 37 116 158 126 170 5 6 22 28 39 50 16 22 35 47 42 55 7 9 25 33 41 54
l28 38 14 -29 c7 -15 22 -59 34 -98z m-564 -3177 c15 -24 48 -70 73 -103 51
-66 55 -71 135 -167 31 -37 56 -69 56 -72 0 -3 16 -22 36 -43 20 -21 48 -53
63 -72 14 -19 35 -44 46 -56 11 -11 31 -34 45 -51 65 -77 135 -159 140 -164 3
-3 30 -34 60 -70 30 -36 57 -67 60 -70 3 -3 16 -18 30 -33 l25 -29 -70 6 c-39
3 -86 8 -105 10 -19 3 -68 8 -109 11 -40 3 -94 7 -120 10 -50 5 -148 14 -226
21 -27 2 -72 7 -100 10 -27 3 -68 7 -90 9 -37 3 -156 13 -230 20 -16 1 -61 6
-100 9 -38 4 -95 9 -125 12 -30 2 -75 7 -100 9 -25 2 -76 7 -115 10 -38 3 -83
7 -100 10 -16 2 -70 7 -120 10 -49 4 -101 8 -115 11 -14 2 -65 6 -115 9 -49 3
-97 8 -105 10 -8 3 -51 7 -95 10 -90 7 -157 12 -230 19 -27 2 -90 7 -140 11
-49 3 -110 8 -135 11 -25 3 -72 7 -105 9 -33 2 -105 6 -160 9 -55 4 -153 8
-219 11 -65 2 -120 6 -122 8 -3 3 25 47 53 82 5 6 40 51 78 100 38 50 73 95
78 100 4 6 28 37 53 70 82 107 106 135 115 129 5 -3 22 -7 37 -10 15 -3 34 -7
42 -11 8 -3 24 -7 35 -8 11 -1 34 -5 50 -10 17 -4 41 -9 55 -10 29 -3 95 -13
130 -20 103 -20 511 -27 665 -12 100 10 156 17 175 22 8 2 35 7 60 10 157 22
389 86 576 161 61 24 116 44 122 44 7 0 12 5 12 10 0 6 6 10 13 10 6 1 30 9
52 20 22 11 43 19 47 20 4 0 20 -19 34 -42z"/>
</g>
</svg>
